<svg width="285" height="267" viewBox="0 0 285 267" fill="none" xmlns="http://www.w3.org/2000/svg">
<path fill-rule="evenodd" clip-rule="evenodd" d="M226.565 170.176C238.868 181.452 247.068 197.854 247.068 216.307C247.068 258.339 209.138 274.741 173.256 263.465C152.752 257.315 132.251 257.315 111.747 263.465C75.8676 274.741 37.9347 258.339 37.9347 216.307C37.9347 197.854 46.1355 181.453 58.4383 170.176C67.6639 161.975 73.8162 152.748 78.9418 140.447C89.1936 115.844 113.797 98.415 142.502 98.415C171.207 98.415 195.81 115.843 206.062 140.447C211.188 152.75 217.338 161.975 226.566 170.176H226.565Z" fill="#47392E"/>
<path fill-rule="evenodd" clip-rule="evenodd" d="M93.2951 0C110.723 0 125.075 17.4284 125.075 38.9567C125.075 59.4602 110.724 76.8867 93.2951 76.8867C75.8668 76.8867 62.5398 59.4583 62.5398 38.9567C62.5398 17.4288 75.8668 0 93.2951 0V0Z" fill="#47392E"/>
<path fill-rule="evenodd" clip-rule="evenodd" d="M191.705 0C209.134 0 223.486 17.4284 223.486 38.9567C223.486 59.4602 209.134 76.8867 191.705 76.8867C174.277 76.8867 159.925 59.4583 159.925 38.9567C159.925 17.4288 174.277 0 191.705 0V0Z" fill="#47392E"/>
<path fill-rule="evenodd" clip-rule="evenodd" d="M265.518 79.9619C280.896 85.088 289.097 103.541 282.946 123.018C277.82 141.471 260.394 153.773 245.016 148.648C229.638 144.546 221.437 125.069 227.588 105.592C232.714 87.1385 250.14 75.8624 265.518 79.9619Z" fill="#47392E"/>
<path fill-rule="evenodd" clip-rule="evenodd" d="M19.4822 79.9619C4.10428 85.088 -4.09658 103.541 2.05383 123.018C7.17996 141.471 24.6064 153.773 39.9839 148.648C55.3618 144.546 63.5626 125.069 58.437 105.592C52.2866 87.1385 34.8582 75.8624 19.4803 79.9619H19.4822Z" fill="#47392E"/>
</svg>
